<?xml version="1.0" encoding="utf-8"?>
<!-- Generator: Adobe Illustrator 24.2.0, SVG Export Plug-In . SVG Version: 6.00 Build 0)  -->
<svg version="1.1" id="Layer_1" xmlns="http://www.w3.org/2000/svg" xmlns:xlink="http://www.w3.org/1999/xlink" x="0px" y="0px"
	 viewBox="0 0 512 512" style="enable-background:new 0 0 512 512;" xml:space="preserve">
<style type="text/css">
	.st0{fill-rule:evenodd;clip-rule:evenodd;fill:#0E50F1;}
	.st1{fill-rule:evenodd;clip-rule:evenodd;fill:#FF9E1A;}
</style>
<g>
	<desc>Created with Sketch.</desc>
	<g>
		<path class="st0" d="M343.5,448c-0.7-0.9-1.5-1.2-2.7-0.5c-1.8,0.9-3.9,1.6-6.1,1.6c-6.1,0-10.3-4.2-10.3-10.2s4.2-10.2,10.3-10.2
			c2,0,4.3,0.5,6.1,1.6c1.2,0.7,2,0.5,2.7-0.5l0.7-0.9c0.7-1.1,0.5-2-0.4-2.7c-2.7-1.8-5.6-2.6-9-2.6c-4.7,0-9,1.6-11.9,4.6
			c-2.8,2.8-4.3,6.6-4.3,10.9s1.5,8,4.3,10.9c3,3,7.1,4.6,11.9,4.6c3.5,0,6.4-0.8,9.2-2.7c0.8-0.7,0.9-1.5,0.3-2.6L343.5,448z"/>
		<path class="st0" d="M357.9,431.6c-6.5,0-11.7,5-11.7,11.3c0,6.4,5.2,11.4,11.7,11.4c6.6,0,11.8-5,11.8-11.4
			C369.6,436.6,364.3,431.6,357.9,431.6z M357.9,449.4c-3.5,0-6.2-2.8-6.2-6.4c0-3.7,2.7-6.5,6.2-6.5s6.2,2.8,6.2,6.5
			C364,446.5,361.3,449.4,357.9,449.4z"/>
		<path class="st0" d="M385.6,431.6c-3.1,0-5.6,1.4-6.6,3.7v-1.2c0-1.2-0.7-1.9-1.9-1.9h-1.9c-1.2,0-1.9,0.7-1.9,1.9V452
			c0,1.2,0.7,1.9,1.9,1.9h1.9c1.2,0,1.9-0.7,1.9-1.9v-8.7c0-2.3,1.1-6.8,5.4-6.8c2.3,0,3.7,1.9,3.7,5.2v10.2c0,1.2,0.7,1.9,1.9,1.9
			h1.9c1.2,0,1.9-0.7,1.9-1.9v-10.4C393.7,435.3,390.6,431.6,385.6,431.6z"/>
		<path class="st0" d="M436.1,432h-1.9c-1.2,0-1.9,0.7-1.9,1.9v0.9c-1.6-2.2-4.2-3.4-7.1-3.4c-6.1,0-10.6,4.7-10.6,11.3
			c0,6.5,4.5,11.4,10.6,11.4c3,0,5.4-1.2,7.1-3.4v0.9c0,1.2,0.7,1.9,1.9,1.9h1.9c1.2,0,1.9-0.7,1.9-1.9V434
			C438.1,432.8,437.3,432,436.1,432z M426.3,449.4c-3.5,0-6-2.7-6-6.5s2.4-6.5,6-6.5s6.1,2.7,6.1,6.5
			C432.4,446.8,429.8,449.4,426.3,449.4z"/>
		<path class="st0" d="M454.4,436.5c0.7,0,2.2,0.1,3.7,0.8c1.2,0.5,2,0.4,2.7-0.5l0.5-0.7c0.4-0.5,0.5-1.1,0.4-1.5s-0.4-0.8-0.9-1.2
			c-2.6-1.5-5-1.9-6.6-1.9c-7.3,0-12.3,4.7-12.3,11.5c0,6.5,5.2,11.1,12.3,11.1c1.5,0,3.8-0.3,6.1-1.5c0.7-0.4,1.2-0.9,1.4-1.5
			s0-0.9-0.4-1.5l-0.5-0.7c-0.7-0.9-1.5-1.1-2.7-0.4c-1.6,0.8-3.4,0.8-3.7,0.8c-4.1,0-6.9-2.7-6.9-6.5
			C447.3,439.2,450.3,436.5,454.4,436.5z"/>
		<path class="st0" d="M480.5,450.1l-1.4-1.8c-0.3-0.3-0.4-0.4-0.7-0.4s-0.5,0.1-0.8,0.4l-0.1,0.1l0,0c-0.1,0.3-0.8,0.8-1.6,0.9l0,0
			c-0.3,0-0.5,0.1-0.8,0c-1.2-0.1-1.9-0.9-1.9-2.6v-10.4h5.2c0.7,0,1.1-0.4,1.1-1.1V433c0-0.7-0.4-1.1-1.1-1.1h-5.2V430l0,0v-2.2
			c0-1.2-0.7-1.9-1.9-1.9h-1.8c-1.2,0-1.9,0.7-1.9,1.9v3.9h-2.2c-0.7,0-1.1,0.4-1.1,1.1v2.2c0,0.7,0.4,1.1,1.1,1.1h2.2v1.9l0,0v8.5
			c0,6.6,4.6,7.6,7.3,7.6c0.9,0,1.8-0.1,2.6-0.3l0,0c0.4-0.1,0.8-0.3,1.2-0.5c0.7-0.3,1.1-0.7,1.6-1.2c0.3-0.3,0.5-0.5,0.7-0.8
			C481,451,480.9,450.5,480.5,450.1z"/>
		<path class="st0" d="M411.2,448.3c-0.3-0.3-0.4-0.4-0.7-0.4c-0.3,0-0.5,0.1-0.8,0.4l-0.1,0.1l0,0c-0.1,0.3-0.8,0.8-1.6,0.9l0,0
			c-0.3,0-0.5,0.1-0.8,0c-1.2-0.1-1.9-0.9-1.9-2.6v-10.4h5.2c0.7,0,1.1-0.4,1.1-1.1V433c0-0.7-0.4-1.1-1.1-1.1h-5.2V430v-2.2
			c0-1.2-0.7-1.9-1.9-1.9h-1.9c-1.2,0-1.9,0.7-1.9,1.9v3.9h-2.2c-0.7,0-1.1,0.4-1.1,1.1v2.2c0,0.7,0.4,1.1,1.1,1.1h2.2v1.9v8.5
			c0,6.6,4.6,7.6,7.3,7.6c0.9,0,1.8-0.1,2.6-0.3l0,0c0.4-0.1,0.8-0.3,1.2-0.5c0.7-0.3,1.1-0.7,1.6-1.2c0.3-0.3,0.5-0.5,0.7-0.8
			c0.4-0.4,0.3-0.9-0.1-1.5L411.2,448.3z"/>
		<path class="st0" d="M147.6,447.9c-0.7-0.9-1.5-1.2-2.7-0.5c-1.8,0.9-3.9,1.6-6.1,1.6c-6.1,0-10.3-4.2-10.3-10.2
			s4.2-10.2,10.3-10.2c2,0,4.3,0.5,6.1,1.6c1.2,0.7,2,0.5,2.7-0.5l0.7-0.9c0.7-1.1,0.5-2-0.4-2.7c-2.7-1.8-5.6-2.6-9-2.6
			c-4.7,0-9,1.6-11.9,4.6c-2.8,2.8-4.3,6.6-4.3,10.9s1.5,8,4.3,10.9c3,3,7.1,4.6,11.9,4.6c3.5,0,6.4-0.8,9.2-2.7
			c0.8-0.7,0.9-1.5,0.3-2.6L147.6,447.9z"/>
		<path class="st0" d="M162,431.6c-6.5,0-11.7,5-11.7,11.3c0,6.4,5.2,11.4,11.7,11.4c6.6,0,11.8-5,11.8-11.4
			C173.6,436.6,168.3,431.6,162,431.6z M162,449.4c-3.5,0-6.2-2.8-6.2-6.4c0-3.7,2.7-6.5,6.2-6.5s6.2,2.8,6.2,6.5
			C168.1,446.5,165.3,449.4,162,449.4z"/>
		<path class="st0" d="M189.6,431.6c-3.1,0-5.6,1.4-6.6,3.7v-1.2c0-1.2-0.7-1.9-1.9-1.9h-1.9c-1.2,0-1.9,0.7-1.9,1.9V452
			c0,1.2,0.7,1.9,1.9,1.9h1.9c1.2,0,1.9-0.7,1.9-1.9v-8.7c0-2.3,1.1-6.8,5.4-6.8c2.3,0,3.7,1.9,3.7,5.2v10.2c0,1.2,0.7,1.9,1.9,1.9
			h1.9c1.2,0,1.9-0.7,1.9-1.9v-10.4C197.8,435.3,194.7,431.6,189.6,431.6z"/>
		<path class="st0" d="M212,441.1l-2.8-0.9c-1.5-0.4-2-1.1-2-2c0-1.2,1.1-2,2.4-2c0.9,0,1.6,0.3,2.2,0.9c0.7,0.8,1.4,1.1,2.4,0.9
			l0.9-0.3c0.7-0.1,1.2-0.5,1.4-1.1c0.1-0.4,0.1-0.9-0.3-1.5c-1.4-2.3-3.7-3.5-6.8-3.5c-4.5,0-7.7,2.8-7.7,6.8c0,2.8,1.9,5,5.8,6.1
			l2.7,0.9c1.6,0.5,2.2,1.2,2.2,2c0,1.2-1.2,2.2-3,2.2c-1.4,0-2.7-0.5-3.4-1.5c-0.7-0.8-1.2-1.4-2.4-1.1l-1.1,0.3
			c-0.7,0.1-1.2,0.5-1.4,0.9c-0.1,0.4-0.1,0.9,0.1,1.5l0,0c1.4,2.7,4.3,4.3,8.1,4.3c5.7,0,8.3-3.4,8.3-6.8
			C217.7,445.3,216.6,442.6,212,441.1z"/>
		<path class="st0" d="M258.8,432h-1.9c-1.2,0-1.9,0.7-1.9,1.9v0.9c-1.6-2.2-4.2-3.4-7.1-3.4c-6.1,0-10.6,4.7-10.6,11.3
			c0,6.5,4.5,11.4,10.6,11.4c3,0,5.4-1.2,7.1-3.4v0.9c0,1.2,0.7,1.9,1.9,1.9h1.9c1.2,0,1.9-0.7,1.9-1.9v-17.8
			C260.9,432.7,260.1,432,258.8,432z M249.1,449.4c-3.5,0-6-2.7-6-6.5s2.4-6.5,6-6.5c3.5,0,6.1,2.7,6.1,6.5
			C255.2,446.7,252.6,449.4,249.1,449.4z"/>
		<path class="st0" d="M278.3,431.6c-3.1,0-5.6,1.4-6.6,3.7v-1.2c0-1.2-0.7-1.9-1.9-1.9h-1.9c-1.2,0-1.9,0.7-1.9,1.9V452
			c0,1.2,0.7,1.9,1.9,1.9h1.9c1.2,0,1.9-0.7,1.9-1.9v-8.7c0-2.3,1.1-6.8,5.4-6.8c2.3,0,3.7,1.9,3.7,5.2v10.2c0,1.2,0.7,1.9,1.9,1.9
			h1.9c1.2,0,1.9-0.7,1.9-1.9v-10.4C286.4,435.3,283.3,431.6,278.3,431.6z"/>
		<path class="st0" d="M303.6,448.2c-0.3-0.3-0.4-0.4-0.7-0.4c-0.3,0-0.5,0.1-0.8,0.4l-0.1,0.1l0,0c-0.1,0.3-0.8,0.8-1.6,0.9l0,0
			c-0.3,0-0.5,0.1-0.8,0c-1.2-0.1-1.9-0.9-1.9-2.6v-10.4h5.2c0.7,0,1.1-0.4,1.1-1.1v-2c0-0.7-0.4-1.1-1.1-1.1h-5.2v-1.9v-2.2
			c0-1.2-0.7-1.9-1.9-1.9H294c-1.2,0-1.9,0.7-1.9,1.9v3.9h-2.2c-0.7,0-1.1,0.4-1.1,1.1v2.2c0,0.7,0.4,1.1,1.1,1.1h2.2v10.4
			c0,6.6,4.6,7.6,7.3,7.6c0.9,0,1.8-0.1,2.6-0.3l0,0c0.4-0.1,0.8-0.3,1.2-0.5c0.7-0.3,1.1-0.7,1.6-1.2c0.3-0.3,0.5-0.5,0.7-0.8
			c0.4-0.4,0.3-0.9-0.1-1.5L303.6,448.2z"/>
		<path class="st0" d="M234.4,448.2c-0.3-0.3-0.4-0.4-0.7-0.4s-0.5,0.1-0.8,0.4l-0.1,0.1l0,0c-0.1,0.3-0.8,0.8-1.6,0.9l0,0
			c-0.3,0-0.5,0.1-0.8,0c-1.2-0.1-1.9-0.9-1.9-2.6v-10.4h5.2c0.7,0,1.1-0.4,1.1-1.1v-2c0-0.7-0.4-1.1-1.1-1.1h-5.2v-1.9l0,0v-2.2
			c0-1.2-0.7-1.9-1.9-1.9h-1.8c-1.2,0-1.9,0.7-1.9,1.9v3.9h-2.2c-0.7,0-1.1,0.4-1.1,1.1v2.2c0,0.7,0.4,1.1,1.1,1.1h2.2v1.9v8.5
			c0,6.6,4.6,7.6,7.3,7.6c0.9,0,1.8-0.1,2.6-0.3l0,0c0.4-0.1,0.8-0.3,1.2-0.5c0.7-0.3,1.1-0.7,1.6-1.2c0.3-0.3,0.5-0.5,0.7-0.8
			c0.4-0.4,0.3-0.9-0.1-1.5L234.4,448.2z"/>
		<path class="st1" d="M80.3,431.9c0.7,2,2.6,3.3,4.7,3.3c0.5,0,1.1-0.1,1.6-0.3c2.6-0.9,3.9-3.8,3-6.4c-1.6-4.5-5-8-9.8-10.2
			c-2.4-1.1-5.4,0-6.6,2.4c-1.1,2.4,0,5.4,2.4,6.6C78.1,428.5,79.6,430,80.3,431.9z"/>
		<path class="st1" d="M78.6,400.7c-2.7-0.5-5.3,1.2-5.8,3.9c-0.5,2.7,1.2,5.3,3.9,5.8c11.3,2.2,18.9,9.8,20.8,20.8
			c0.4,2.4,2.6,4.1,4.9,4.1c0.3,0,0.5,0,0.8-0.1c2.7-0.5,4.5-3.1,4.1-5.7C104.7,414.5,94,403.6,78.6,400.7z"/>
		<path class="st0" d="M66,450.3c-4.5,0-8.3-3.7-8.3-8.3c0-4.5,3.7-8.3,8.3-8.3c2.7,0,5-2.2,5-5s-2.2-5-5-5
			c-10,0-18.2,8.1-18.2,18.2c0,10,8.1,18.2,18.2,18.2s18.2-8.1,18.2-18.2c0-2.7-2.2-5-5-5c-2.7,0-5,2.2-5,5
			C74.3,446.7,70.5,450.3,66,450.3z"/>
		<path class="st0" d="M96,437.2c-2.7,0-5,2.2-5,5c0,13.8-11.3,25.1-25.1,25.1S40.8,456,40.8,442.2s11.3-25.1,25.1-25.1
			c2.7,0,5-2.2,5-5c0-2.7-2.2-5-5-5c-19.1,0-34.9,15.7-34.9,35c0,19.3,15.7,35,35,35s35-15.7,35-35C101,439.3,98.9,437.2,96,437.2z"
			/>
	</g>
</g>
<g>
	<desc>Created with Sketch.</desc>
	<g>
		<path class="st1" d="M309.2,168.4c2.8,7.9,10.3,13.1,18.7,13.1c2,0,4.4-0.4,6.4-1.2c10.3-3.6,15.5-15.1,11.9-25.4
			c-6.4-17.9-19.9-31.8-38.9-40.5c-9.5-4.4-21.5,0-26.2,9.5c-4.4,9.5,0,21.5,9.5,26.2C300.4,154.9,306.4,160.9,309.2,168.4z"/>
		<path class="st1" d="M302.4,44.5c-10.7-2-21.1,4.8-23,15.5c-2,10.7,4.8,21.1,15.5,23c44.9,8.7,75.1,38.9,82.6,82.6
			c1.6,9.5,10.3,16.3,19.5,16.3c1.2,0,2,0,3.2-0.4c10.7-2,17.9-12.3,16.3-22.6C406.1,99.3,363.6,56,302.4,44.5z"/>
		<path class="st0" d="M252.4,241.5c-17.9,0-33-14.7-33-33c0-17.9,14.7-33,33-33c10.7,0,19.9-8.7,19.9-19.9
			c0-11.1-8.7-19.9-19.9-19.9c-39.7,0-72.3,32.2-72.3,72.3c0,39.7,32.2,72.3,72.3,72.3s72.3-32.2,72.3-72.3
			c0-10.7-8.7-19.9-19.9-19.9c-10.7,0-19.9,8.7-19.9,19.9C285.3,227.2,270.2,241.5,252.4,241.5z"/>
		<path class="st0" d="M371.5,189.5c-10.7,0-19.9,8.7-19.9,19.9c0,54.8-44.9,99.7-99.7,99.7s-99.7-44.9-99.7-99.7
			s44.9-99.7,99.7-99.7c10.7,0,19.9-8.7,19.9-19.9c0-10.7-8.7-19.9-19.9-19.9c-75.9,0-138.7,62.4-138.7,139.1S175.7,348,252.4,348
			s139.1-62.4,139.1-139.1C391.4,197.8,383.1,189.5,371.5,189.5z"/>
	</g>
</g>
</svg>
