<?xml version="1.0" encoding="UTF-8"?>
<svg id="b" data-name="Layer 2" xmlns="http://www.w3.org/2000/svg" width="250" height="250" viewBox="0 0 250 250">
  <g id="c" data-name="google-auth-logo-250x250">
    <rect width="250" height="250" style="fill: none;"/>
    <g>
      <path d="M235,125c0,10.24-8.3,18.54-18.54,18.54h-63.96l-27.5-55.62,29.68-51.4c5.13-8.87,16.45-11.89,25.32-6.78,8.87,5.13,11.89,16.45,6.78,25.32l-29.68,51.4h59.35c10.24,0,18.54,8.3,18.54,18.54Z" style="fill: #4070b7;"/>
      <path d="M180,220.26c-8.87,5.11-20.19,2.09-25.32-6.78l-29.68-51.4-29.68,51.4c-5.13,8.87-16.45,11.89-25.32,6.78-8.87-5.13-11.89-16.45-6.78-25.32l29.68-51.4,32.11-1.21,32.11,1.21,29.68,51.4c5.11,8.87,2.09,20.19-6.78,25.32h0Z" style="fill: #ea4535;"/>
      <path d="M125,87.92l-8.36,22.73-23.74-4.19-29.68-51.4c-5.11-8.87-2.09-20.19,6.78-25.32,8.87-5.11,20.19-2.09,25.32,6.78l29.68,51.4Z" style="fill: #f9bc15;"/>
      <path d="M120.21,106.46l-21.52,37.08H33.54c-10.24,0-18.54-8.3-18.54-18.54s8.3-18.54,18.54-18.54h86.67Z" style="fill: #36a852;"/>
      <path d="M157.11,143.54h-64.21l32.11-55.62,32.11,55.62Z" style="fill: #2a5fac;"/>
    </g>
  </g>
</svg>