<?xml version="1.0" encoding="UTF-8"?><svg id="Layer_1" xmlns="http://www.w3.org/2000/svg" xmlns:xlink="http://www.w3.org/1999/xlink" viewBox="0 0 175.61 39.9"><defs><linearGradient id="linear-gradient" x1="25.1" y1="14.37" x2="31.54" y2="25.53" gradientUnits="userSpaceOnUse"><stop offset="0" stop-color="#7413d1"/><stop offset="1" stop-color="#07eeff"/></linearGradient><linearGradient id="linear-gradient-2" x1="34.74" y1="26.28" x2="21.9" y2="26.28" gradientUnits="userSpaceOnUse"><stop offset="0" stop-color="#6d19d2"/><stop offset="1" stop-color="#007cdc"/><stop offset="1" stop-color="#7413d1"/></linearGradient><linearGradient id="linear-gradient-3" x1="-430.61" y1="-34.5" x2="-424.18" y2="-23.36" gradientTransform="translate(-176.74 -374.14) rotate(-120)" xlink:href="#linear-gradient"/><linearGradient id="linear-gradient-4" x1="-420.95" y1="-22.6" x2="-433.81" y2="-22.6" gradientTransform="translate(-176.74 -374.14) rotate(-120)" gradientUnits="userSpaceOnUse"><stop offset="0" stop-color="#7413d1"/><stop offset="1" stop-color="#0478dc"/></linearGradient><linearGradient id="linear-gradient-5" x1="-160.4" y1="-404.74" x2="-153.98" y2="-393.61" gradientTransform="translate(-412.39 -34.01) rotate(120)" xlink:href="#linear-gradient"/><linearGradient id="linear-gradient-6" x1="-150.76" y1="-392.85" x2="-163.63" y2="-392.85" gradientTransform="translate(-412.39 -34.01) rotate(120)" gradientUnits="userSpaceOnUse"><stop offset="0" stop-color="#7413d1"/><stop offset="1" stop-color="#007cdc"/></linearGradient></defs><g id="Logo-Mark"><polyline points="22.85 29.45 22.85 23.12 28.32 19.95 28.32 13.62 28.32 13.61 28.32 13.62 22.85 16.78 28.32 13.62 28.32 13.61 33.8 10.45" style="fill:none; stroke:url(#linear-gradient); stroke-linecap:round; stroke-linejoin:round; stroke-width:1.9px;"/><polyline points="22.85 35.78 22.85 35.78 28.32 32.62 28.32 26.28 33.8 23.12 33.8 23.12 33.8 16.78 33.8 23.12 33.8 23.12 33.8 29.45" style="fill:none; stroke:url(#linear-gradient-2); stroke-linecap:round; stroke-linejoin:round; stroke-width:1.9px;"/><polyline points="22.85 10.45 17.37 13.62 11.9 10.45 6.43 13.62 6.42 13.62 6.43 13.62 11.9 16.78 6.43 13.62 6.42 13.62 .95 10.45" style="fill:none; stroke:url(#linear-gradient-3); stroke-linecap:round; stroke-linejoin:round; stroke-width:1.9px;"/><polyline points="28.32 7.28 28.32 7.28 22.85 4.12 17.37 7.28 11.9 4.12 11.9 4.12 6.43 7.28 11.9 4.12 11.9 4.12 17.37 .95" style="fill:none; stroke:url(#linear-gradient-4); stroke-linecap:round; stroke-linejoin:round; stroke-width:1.9px;"/><polyline points="6.42 19.95 11.9 23.12 11.9 29.45 17.37 32.61 17.37 32.62 17.37 32.61 17.37 26.28 17.37 32.61 17.37 32.62 17.37 38.95" style="fill:none; stroke:url(#linear-gradient-5); stroke-linecap:round; stroke-linejoin:round; stroke-width:1.9px;"/><polyline points=".95 16.78 .95 16.78 .95 23.12 6.42 26.28 6.42 32.61 6.43 32.62 11.9 35.78 6.43 32.62 6.42 32.61 .95 29.45" style="fill:none; stroke:url(#linear-gradient-6); stroke-linecap:round; stroke-linejoin:round; stroke-width:1.9px;"/><circle cx="17.37" cy="19.95" r="1.9" style="fill:#07eeff;"/></g><path d="M46.37,11.8c0,.8.91,1.2,1.84,1.2.86,0,1.77-.4,1.77-1.1,0-1.11-1.29-1.16-2.14-1.21-2.12-.13-4.24-.98-4.24-3.41s2.14-3.8,4.51-3.8c2.24,0,4.51,1.28,4.46,3.8h-2.84c-.02-.8-.76-1.13-1.57-1.13-.68,0-1.57.18-1.57,1.06,0,.78.66.96,1.77,1.08,2.47.22,4.63.8,4.63,3.62,0,2.44-2.37,3.72-4.74,3.72s-4.81-1.23-4.76-3.84h2.88Z" style="fill:#007cdc;"/><path d="M57.94,13.92l-.66,1.45h-3.17v-.42l5.32-11.33h1.39l5.27,11.33v.42h-3.13l-.68-1.45h-4.34ZM58.91,11.38h2.4l-1.21-2.81-1.19,2.81Z" style="fill:#007cdc;"/><path d="M71.01,12.64h4.19v2.72h-7.23V3.74h3.03v8.9Z" style="fill:#007cdc;"/><path d="M84.81,6.38h-4.21v1.66h3.88v2.66h-3.88v1.89h4.36v2.77h-7.39V3.74h7.24v2.64Z" style="fill:#007cdc;"/><path d="M90.18,11.8c0,.8.91,1.2,1.84,1.2.86,0,1.77-.4,1.77-1.1,0-1.11-1.29-1.16-2.14-1.21-2.12-.13-4.24-.98-4.24-3.41s2.14-3.8,4.51-3.8c2.24,0,4.51,1.28,4.46,3.8h-2.84c-.02-.8-.76-1.13-1.57-1.13-.68,0-1.57.18-1.57,1.06,0,.78.66.96,1.77,1.08,2.47.22,4.63.8,4.63,3.62,0,2.44-2.37,3.72-4.74,3.72s-4.81-1.23-4.76-3.84h2.88Z" style="fill:#007cdc;"/><path d="M106.09,13.92l-.66,1.45h-3.17v-.42l5.32-11.33h1.39l5.27,11.33v.42h-3.13l-.68-1.45h-4.34ZM107.07,11.38h2.4l-1.21-2.81-1.19,2.81Z" style="fill:#58595b;"/><path d="M119.17,9.37v6h-3.03V3.69h.94l6.05,5.73V3.74h3.03v11.66h-.9l-6.1-6.03Z" style="fill:#58595b;"/><path d="M133.92,3.76c3.78,0,5.72,2.89,5.72,5.75.05,2.92-1.87,5.86-5.72,5.86h-4.43V3.76h4.43ZM133.89,12.63c1.84,0,2.72-1.54,2.72-3.09s-.93-3.06-2.72-3.06h-1.36v6.15h1.36Z" style="fill:#58595b;"/><path d="M54.34,24.47h1.08v11.66h-3.03v-5.37l-2.47,2.59h-.35l-2.47-2.59v5.37h-3.03v-11.66h1.08l4.61,5.03,4.59-5.03Z" style="fill:#7413d1;"/><path d="M61.12,34.68l-.66,1.45h-3.17v-.42l5.32-11.33h1.39l5.27,11.33v.42h-3.13l-.68-1.45h-4.34ZM62.1,32.14h2.4l-1.21-2.81-1.19,2.81Z" style="fill:#7413d1;"/><path d="M81.01,35.68v.43h-3.22l-1.99-3.64h-1.59v3.64h-3.03v-11.63c1.72,0,3.4-.02,5.11,0,2.8,0,4.18,2.08,4.18,4.12-.02,1.33-.58,2.61-1.72,3.39l2.27,3.69ZM76.27,30c.85,0,1.26-.73,1.26-1.46s-.4-1.41-1.26-1.41h-2.11v2.87h2.11Z" style="fill:#7413d1;"/><path d="M88,31.64c-.35.05-1.03.05-1.44.05v4.44h-3.03v-11.63h3.03v4.55c.48,0,1.28.03,1.69-.18.53-.27.71-.96,1.04-2.36.35-1.41,1.48-2.56,4.19-1.99v2.04c-.73-.05-1.23.12-1.41.83-.38,1.4-.78,2.38-1.43,3.09,1.11,1.73,2.19,3.47,3.32,5.2v.45h-3.43l-2.54-4.49Z" style="fill:#7413d1;"/><path d="M103.59,27.14h-4.21v1.66h3.88v2.66h-3.88v1.89h4.36v2.77h-7.39v-11.63h7.24v2.64Z" style="fill:#7413d1;"/><path d="M105.72,27.16v-2.66h8.62v2.66h-2.84v8.97h-2.93v-8.97h-2.85Z" style="fill:#7413d1;"/><path d="M122.27,33.67v2.46h-5.99v-2.46h1.48v-6.71h-1.34v-2.46h5.72v2.46h-1.34v6.71h1.48Z" style="fill:#7413d1;"/><path d="M128.17,30.13v6h-3.03v-11.68h.94l6.05,5.73v-5.68h3.03v11.66h-.9l-6.1-6.03Z" style="fill:#7413d1;"/><path d="M143.83,24.35c2.3,0,4.71,1.18,5.32,4h-2.95c-.51-.93-1.24-1.28-2.37-1.28-1.87,0-2.9,1.48-2.9,3.24,0,1.94,1.13,3.19,2.9,3.19,1.19,0,1.96-.3,2.5-1.41h-2.47v-2.56h5.47c.08,1.13.07,2.24-.31,3.37-.85,2.44-3.03,3.37-5.19,3.37-2.95,0-5.97-1.98-5.97-5.95s3.02-5.98,5.97-5.98Z" style="fill:#7413d1;"/><path d="M151.4,34.91c0-.93.73-1.53,1.64-1.53s1.64.6,1.64,1.53-.71,1.51-1.64,1.51-1.64-.58-1.64-1.51Z" style="fill:#58595b;"/><path d="M160.03,34.68l-.66,1.45h-3.17v-.42l5.32-11.33h1.39l5.27,11.33v.42h-3.13l-.68-1.45h-4.34ZM161,32.14h2.4l-1.21-2.81-1.19,2.81Z" style="fill:#58595b;"/><path d="M175.61,33.67v2.46h-5.99v-2.46h1.48v-6.71h-1.34v-2.46h5.72v2.46h-1.34v6.71h1.48Z" style="fill:#58595b;"/></svg>