<?xml version="1.0" encoding="UTF-8"?>
<svg id="Layer_2" xmlns="http://www.w3.org/2000/svg" xmlns:xlink="http://www.w3.org/1999/xlink" viewBox="0 0 40 40">
  <defs>
    <style>
      .cls-1 {
        fill: url(#linear-gradient-2);
      }

      .cls-2 {
        fill: none;
      }

      .cls-3 {
        fill: url(#linear-gradient-4);
      }

      .cls-4 {
        fill: url(#linear-gradient-3);
      }

      .cls-5 {
        fill: url(#linear-gradient-5);
      }

      .cls-6 {
        fill: #07eeff;
      }

      .cls-7 {
        fill: url(#linear-gradient-6);
      }

      .cls-8 {
        fill: url(#linear-gradient);
      }
    </style>
    <linearGradient id="linear-gradient" x1="27.68" y1="14.35" x2="34.2" y2="25.65" gradientUnits="userSpaceOnUse">
      <stop offset="0" stop-color="#7413d1"/>
      <stop offset="1" stop-color="#07eeff"/>
    </linearGradient>
    <linearGradient id="linear-gradient-2" x1="37.46" y1="26.32" x2="24.42" y2="26.32" gradientUnits="userSpaceOnUse">
      <stop offset="0" stop-color="#6d19d2"/>
      <stop offset="1" stop-color="#007cdc"/>
      <stop offset="1" stop-color="#7413d1"/>
    </linearGradient>
    <linearGradient id="linear-gradient-3" x1="-637.77" y1="263.79" x2="-631.25" y2="275.09" gradientTransform="translate(-536.06 -404.26) rotate(-120)" xlink:href="#linear-gradient"/>
    <linearGradient id="linear-gradient-4" x1="-627.99" y1="275.76" x2="-641.03" y2="275.76" gradientTransform="translate(-536.06 -404.26) rotate(-120)" gradientUnits="userSpaceOnUse">
      <stop offset="0" stop-color="#7413d1"/>
      <stop offset="1" stop-color="#0478dc"/>
    </linearGradient>
    <linearGradient id="linear-gradient-5" x1="-521.06" y1="-437.22" x2="-514.54" y2="-425.93" gradientTransform="translate(-618.13 262.12) rotate(120)" xlink:href="#linear-gradient"/>
    <linearGradient id="linear-gradient-6" x1="-511.28" y1="-425.26" x2="-524.32" y2="-425.26" gradientTransform="translate(-618.13 262.12) rotate(120)" gradientUnits="userSpaceOnUse">
      <stop offset="0" stop-color="#7413d1"/>
      <stop offset="1" stop-color="#007cdc"/>
    </linearGradient>
  </defs>
  <g id="Layer_2-2" data-name="Layer_2">
    <g>
      <g id="Logo-Mark">
        <path class="cls-8" d="M25.47,30.53c-.58,0-1.05-.47-1.05-1.05v-6.32c0-.37.2-.72.52-.91l4.95-2.86v-3.89l-3.9,2.25c-.5.29-1.14.12-1.43-.38-.1-.17-.14-.35-.14-.52,0-.36.19-.72.52-.91l5.41-3.12s.04-.02.06-.04l5.47-3.16c.5-.29,1.14-.12,1.43.38s.12,1.14-.38,1.43l-4.95,2.86v5.71c0,.37-.2.72-.52.91l-4.95,2.86v5.71c0,.58-.47,1.05-1.05,1.05Z"/>
        <path class="cls-1" d="M25.47,36.84c-.58,0-1.05-.47-1.05-1.05h0c0-.38.2-.72.52-.91l4.95-2.86v-5.71c0-.37.2-.72.52-.91l4.95-2.86v-5.71c0-.58.47-1.05,1.05-1.05s1.05.47,1.05,1.05v12.63c0,.58-.47,1.05-1.05,1.05s-1.05-.47-1.05-1.05v-4.5l-3.37,1.95v5.71c0,.37-.2.72-.52.91l-5.43,3.14c-.16.1-.36.16-.56.16Z"/>
        <path class="cls-4" d="M14.53,17.89c-.18,0-.36-.05-.52-.14l-5.41-3.12s-.04-.02-.06-.03l-5.47-3.16c-.5-.29-.67-.93-.38-1.43.29-.5.93-.67,1.43-.38l4.95,2.86,4.95-2.86c.32-.19.72-.19,1.05,0l4.95,2.86,4.95-2.86c.5-.29,1.14-.12,1.43.38.29.5.12,1.14-.38,1.43l-5.47,3.16c-.32.19-.72.19-1.05,0l-4.95-2.86-3.37,1.95,3.9,2.25c.34.19.52.55.52.91,0,.18-.05.36-.14.52-.19.34-.55.52-.91.52Z"/>
        <path class="cls-3" d="M9.06,8.42c-.36,0-.72-.19-.91-.52-.1-.17-.14-.35-.14-.52,0-.36.19-.72.52-.91L19.48.14c.5-.29,1.14-.12,1.43.38.29.5.12,1.14-.38,1.43l-3.9,2.25,3.37,1.95,4.95-2.86c.32-.19.72-.19,1.05,0l5.43,3.14c.17.09.32.22.42.4.29.5.13,1.14-.37,1.44h0c-.33.19-.73.19-1.06,0l-4.95-2.86-4.95,2.86c-.32.19-.72.19-1.05,0l-4.95-2.86-4.95,2.86c-.17.1-.35.14-.52.14Z"/>
        <path class="cls-5" d="M20,40h0c-.58,0-1.05-.47-1.05-1.05v-5.71s-4.95-2.86-4.95-2.86c-.32-.19-.52-.53-.52-.91v-5.71s-4.95-2.86-4.95-2.86c-.5-.29-.67-.93-.38-1.43.29-.5.93-.67,1.43-.38l5.47,3.16c.32.19.52.53.52.91v5.71s3.37,1.95,3.37,1.95v-4.5c0-.58.47-1.05,1.05-1.05h0c.58,0,1.05.47,1.05,1.05v6.25s0,.04,0,.07v6.32c0,.58-.47,1.05-1.05,1.05Z"/>
        <path class="cls-7" d="M14.53,36.84c-.18,0-.36-.05-.52-.14l-10.94-6.32c-.5-.29-.67-.93-.38-1.43.29-.5.93-.67,1.43-.38l3.9,2.25v-3.89s-4.94-2.86-4.94-2.86c-.32-.19-.52-.53-.52-.91v-6.27c0-.2.04-.39.14-.58.29-.5.94-.67,1.43-.37h0c.32.19.52.53.52.91v5.71s4.94,2.86,4.94,2.86c.32.19.52.53.52.91v5.71s4.95,2.86,4.95,2.86c.34.19.52.55.52.91,0,.18-.05.36-.14.52-.19.34-.55.52-.91.52Z"/>
        <circle class="cls-6" cx="20" cy="20" r="1.9"/>
      </g>
      <rect class="cls-2" width="40" height="40"/>
    </g>
  </g>
</svg>