<?xml version="1.0" encoding="UTF-8"?>
<svg id="b" data-name="Layer 2" xmlns="http://www.w3.org/2000/svg" width="250" height="250" xmlns:xlink="http://www.w3.org/1999/xlink" viewBox="0 0 250 250">
  <defs>
    <linearGradient id="d" x1="124.1" y1="157.16" x2="124.23" y2="235" gradientUnits="userSpaceOnUse">
      <stop offset="0" stop-color="#49c2f1"/>
      <stop offset="1" stop-color="#34a7df"/>
    </linearGradient>
    <linearGradient id="e" x1="124.38" y1="75.2" x2="124.24" y2="192.3" gradientUnits="userSpaceOnUse">
      <stop offset="0" stop-color="#2c74bb"/>
      <stop offset="1" stop-color="#00569f"/>
    </linearGradient>
    <linearGradient id="f" x1="120.3" y1="84.78" x2="120.54" y2="137.89" gradientTransform="translate(4.7 5.16)" gradientUnits="userSpaceOnUse">
      <stop offset="0" stop-color="#49c2f1"/>
      <stop offset="1" stop-color="#3498d4"/>
    </linearGradient>
  </defs>
  <g id="c" data-name="ms-auth-logo-250x250">
    <rect width="250" height="250" style="fill: none;"/>
    <g>
      <path d="M182.84,199.3c-39.94,47.05-77.38,48.15-117.34,0l13.08-20.89c31.05-36,89.65-24.46,104.26,20.89Z" style="fill: url(#d);"/>
      <path d="M182.84,199.3c-14.61-45.34-73.21-56.89-104.26-20.89l-13.08,20.89c-23.83-28.7-54.83-111.07-2.47-125.98,7.82-2.22,16.66-1.79,24.7-2.47h74.11c7.42.62,17.64.42,24.7,2.47,51.22,14.92,20.16,97.9-3.71,125.98Z" style="fill: url(#e);"/>
      <circle cx="125.13" cy="117.54" r="30.33" style="fill: url(#f);"/>
      <path d="M186.54,73.32c-7.06-2.05-17.28-1.85-24.7-2.47-10.41-40.09-64.14-40.71-74.11,0-8.04.68-16.88.25-24.7,2.47,1.4-29.48,24.71-54.96,54.35-58.05,3.71-.38,9.84-.33,13.59,0,30.17,2.68,54.17,27.95,55.58,58.05Z" style="fill: #224186;"/>
    </g>
  </g>
</svg>